<svg xmlns="http://www.w3.org/2000/svg" viewBox="0 0 24 24">
  <path d="M12 15a3 3 0 1 0 0-6 3 3 0 0 0 0 6zm7.2-2.4a7.2 7.2 0 0 0 .07-1.1c0-.37-.03-.74-.08-1.1l2.36-1.84a.56.56 0 0 0 .14-.72l-2.23-3.87a.56.56 0 0 0-.68-.25l-2.79 1.12a8.2 8.2 0 0 0-1.88-1.09l-.42-2.97A.54.54 0 0 0 13 1h-2a.54.54 0 0 0-.54.46l-.42 2.97A8.2 8.2 0 0 0 8.16 5.5L5.37 4.38a.55.55 0 0 0-.68.25L2.46 8.5a.55.55 0 0 0 .14.72l2.36 1.84a8.4 8.4 0 0 0-.07 1.1c0 .37.03.73.07 1.1L2.6 15.1a.56.56 0 0 0-.14.72l2.23 3.87c.14.25.44.34.68.25l2.79-1.12c.6.42 1.22.77 1.88 1.09l.42 2.97c.06.27.3.47.54.47h2c.27 0 .5-.2.54-.46l.42-2.97a8.2 8.2 0 0 0 1.88-1.1l2.79 1.12c.25.1.54 0 .68-.24l2.23-3.87a.55.55 0 0 0-.13-.72l-2.37-1.85z"/>
</svg>